<svg width="37" height="37" viewBox="0 0 39 39" xmlns="http://www.w3.org/2000/svg">
    <path d="M19.5 14.5832C21.0053 14.5832 22.0208 15.2334 22.5998 15.7768L24.8623 13.5677C23.4727 12.2762 21.6645 11.4834 19.5 11.4834C16.3646 11.4834 13.6567 13.2827 12.3384 15.9015L14.9305 17.9145C15.5807 15.9816 17.38 14.5832 19.5 14.5832V14.5832Z" fill="#EA4335"/>
    <path d="M27.196 19.6783C27.196 19.0191 27.1426 18.5381 27.0268 18.0393H19.5V21.0144H23.9181C23.829 21.7537 23.348 22.8671 22.2791 23.6153L24.8088 25.575C26.3231 24.1765 27.196 22.1189 27.196 19.6783V19.6783Z" fill="#4285F4"/>
    <path d="M14.9394 21.0856C14.7702 20.5868 14.6722 20.0523 14.6722 19.5001C14.6722 18.9478 14.7702 18.4134 14.9305 17.9146L12.3384 15.9015C11.7951 16.9882 11.4833 18.2085 11.4833 19.5001C11.4833 20.7917 11.7951 22.012 12.3384 23.0987L14.9394 21.0856V21.0856Z" fill="#FBBC05"/>
    <path d="M19.5 27.5167C21.6645 27.5167 23.4816 26.8041 24.8088 25.5749L22.2791 23.6153C21.6021 24.0874 20.6936 24.4169 19.5 24.4169C17.38 24.4169 15.5807 23.0185 14.9394 21.0856L12.3474 23.0986C13.6656 25.7174 16.3646 27.5167 19.5 27.5167V27.5167Z" fill="#34A853"/>
</svg>
