<svg width="37" height="37" viewBox="0 0 39 39" fill="none" xmlns="http://www.w3.org/2000/svg">
    <path d="M20.4677 25.5711C20.4677 25.5711 20.8239 25.5323 21.0063 25.34C21.1732 25.1637 21.1675 24.8312 21.1675 24.8312C21.1675 24.8312 21.1453 23.2784 21.8797 23.0492C22.6036 22.8237 23.5331 24.5508 24.5195 25.2149C25.2646 25.717 25.8301 25.6071 25.8301 25.6071L28.466 25.5711C28.466 25.5711 29.8442 25.4878 29.1908 24.4238C29.1368 24.3367 28.8096 23.6365 27.2315 22.1984C25.5782 20.693 25.8002 20.9365 27.7904 18.3321C29.0026 16.7461 29.4871 15.7779 29.3356 15.3639C29.1918 14.9679 28.3 15.073 28.3 15.073L25.3331 15.091C25.3331 15.091 25.113 15.0617 24.9499 15.1574C24.7907 15.2511 24.6874 15.47 24.6874 15.47C24.6874 15.47 24.2183 16.6969 23.5919 17.7409C22.2706 19.9426 21.7427 20.0592 21.5265 19.9228C21.0236 19.6035 21.1491 18.6419 21.1491 17.9588C21.1491 15.8243 21.4792 14.9347 20.5073 14.7045C20.1849 14.6278 19.9475 14.5775 19.1223 14.569C18.0635 14.5586 17.1678 14.5728 16.6602 14.8163C16.3224 14.9783 16.0618 15.3402 16.221 15.361C16.417 15.3866 16.8609 15.4785 17.0964 15.7931C17.4004 16.1995 17.3898 17.1109 17.3898 17.1109C17.3898 17.1109 17.5645 19.6234 16.9816 19.9351C16.582 20.1492 16.0338 19.7124 14.8553 17.7144C14.2521 16.6912 13.7965 15.56 13.7965 15.56C13.7965 15.56 13.7087 15.3487 13.5514 15.235C13.3613 15.0977 13.0958 15.055 13.0958 15.055L10.2766 15.073C10.2766 15.073 9.85291 15.0844 9.69752 15.2654C9.5595 15.4255 9.6869 15.758 9.6869 15.758C9.6869 15.758 11.8942 20.8275 14.394 23.3826C16.6862 25.7246 19.2883 25.5711 19.2883 25.5711H20.4677Z" fill="#4C6C91"/>
</svg>