<?xml version="1.0" encoding="utf-8"?>
<!-- Generator: Adobe Illustrator 21.0.1, SVG Export Plug-In . SVG Version: 6.00 Build 0)  -->
<svg version="1.1" id="Слой_1" xmlns="http://www.w3.org/2000/svg" xmlns:xlink="http://www.w3.org/1999/xlink" x="0px" y="0px"
	 viewBox="0 0 171 74.3" style="enable-background:new 0 0 171 74.3;" xml:space="preserve">
<style type="text/css">
	.st0{fill:#E9E9E9;}
	.st1{fill:#E21E32;}
	.st2{fill:#E22232;}
</style>
<g id="rts_logo.cdr">
	<path class="st0" d="M74.2,68.1c0,3.4-2.7,6.1-6.1,6.1H6.2c-3.4,0-6.2-2.7-6.2-6.1V6.2c0-3.4,2.7-6.2,6.2-6.2h61.9
		c3.4,0,6.1,2.7,6.1,6.2V68.1z"/>
	<path class="st1" d="M21.1,37.2h1.4c2.2,0,2.4-1.3,2.4-2c0-0.9-0.3-2-2.4-2h-1.4V37.2z M16.2,29.3h7.4c5,0,6.4,3.5,6.4,5.9
		c0,2.4-1.4,5.9-6.4,5.9h-2.5v5.8h-4.9V29.3z"/>
	<polygon class="st1" points="34.7,33.5 30.9,33.5 30.9,29.3 43.5,29.3 43.5,33.5 39.6,33.5 39.6,46.9 34.7,46.9 	"/>
	<path class="st1" d="M58.2,46.1c-1.6,1.1-3.2,1.3-4.7,1.3c-5.2,0-9-3.7-9-9.3c0-5.9,4.1-9.3,8.9-9.3c1.6,0,3.3,0.4,4.8,1.4v5.1
		c-0.9-1-2.3-2.1-4.2-2.1c-2.7,0-4.5,2.2-4.5,5c0,2.6,1.7,4.7,4.5,4.7c1.8,0,3.3-1,4.2-1.9V46.1z"/>
	<polygon class="st1" points="26.8,20 25,20 25,19.4 29.3,19.4 29.3,20 27.5,20 27.5,24.6 26.8,24.6 	"/>
	<path class="st1" d="M34.3,21.5c0-0.8-0.6-1.7-1.7-1.7c-1,0-1.7,0.7-1.8,1.7H34.3z M35,23.2c-0.4,0.9-1.2,1.6-2.4,1.6
		c-1.7,0-2.6-1.4-2.6-2.8c0-1.5,0.9-2.8,2.6-2.8c1.8,0,2.4,1.5,2.4,2.5v0.3h-4.3c0,1,0.6,2.2,1.9,2.2c0.4,0,1.2-0.1,1.8-1.3L35,23.2
		z"/>
	<polygon class="st1" points="36.5,19.4 37.2,19.4 37.2,21.7 40.1,21.7 40.1,19.4 40.8,19.4 40.8,24.6 40.1,24.6 40.1,22.2 
		37.2,22.2 37.2,24.6 36.5,24.6 	"/>
	<path class="st1" d="M45.6,20h-1.9v2.4c0,0.7-0.2,1.2-0.7,1.6h2.6V20z M46.3,19.4V24h0.7v1.9h-0.7v-1.3h-3.9v1.3h-0.7V24
		c1.1-0.1,1.2-1.2,1.2-2.1v-2.5H46.3z"/>
	<path class="st1" d="M52.2,21.5c0-0.8-0.6-1.7-1.6-1.7c-1,0-1.7,0.7-1.8,1.7H52.2z M52.9,23.2c-0.4,0.9-1.1,1.6-2.4,1.6
		c-1.7,0-2.7-1.4-2.7-2.8c0-1.5,0.9-2.8,2.7-2.8c1.8,0,2.4,1.5,2.4,2.5v0.3h-4.3c0,1,0.6,2.2,1.9,2.2c0.4,0,1.2-0.1,1.8-1.3
		L52.9,23.2z"/>
	<path class="st1" d="M58.8,22c0-1-0.6-2.2-2-2.2c-1.1,0-1.8,1-1.8,2.2c0,1.4,0.9,2.2,2,2.2C58.1,24.2,58.8,23.2,58.8,22z M55,19.4
		v0.9c0.3-0.6,0.9-1.1,1.9-1.1c1.6,0,2.6,1.1,2.6,2.8c0,1.6-1,2.8-2.6,2.8c-1.1,0-1.6-0.6-1.9-1V27h-0.7v-7.6H55z"/>
	<g>
		<path class="st2" d="M85.6,18c-0.7,0-1.5,0.2-2.4,0.8l-0.1,0l0.6,1l0.1-0.1c0.6-0.5,1.2-0.6,1.7-0.6c0.5,0,1,0.1,1.5,0.6
			c0.4,0.4,0.6,1,0.6,1.9v0.1h-3v1.1h3V23c0,0.7-0.1,1.7-0.7,2.3c-0.5,0.5-1.1,0.5-1.5,0.5c-0.6,0-1.2-0.1-1.8-0.6l-0.1-0.1L83,26
			l0.1,0.1c0.2,0.2,0.5,0.3,0.9,0.5c0.5,0.2,1,0.3,1.5,0.3c0.8,0,1.7-0.1,2.6-0.9c1-1.1,1.2-2.6,1.2-3.6c0-1-0.1-2.3-1.1-3.3
			C87.4,18.3,86.5,18,85.6,18z"/>
		<path class="st2" d="M91.3,26.8c0.4,0,0.9-0.1,1.4-0.5c0.6-0.6,0.7-1.5,0.8-2.1c0.1-0.8,0.2-2.1,0.3-3.1l0.1-1.8h1.9v7.5h1.3v-8.6
			h-4.4l-0.1,2c0,0.7-0.1,2.4-0.2,3.2c-0.1,0.9-0.2,1.7-0.7,2.1c-0.2,0.2-0.5,0.3-0.7,0.4l-0.3,0.1l-0.1,0l0.3,1L91.3,26.8z"/>
		<polygon class="st2" points="105.1,26.8 105.1,25.6 101.5,25.6 101.5,22.8 104.2,22.8 104.2,21.7 101.5,21.7 101.5,19.3 
			104.7,19.3 104.9,18.2 100.2,18.2 100.2,26.8 100.2,26.8 		"/>
		<path class="st2" d="M108.7,22.8h0.9c0.2,0,0.5,0,0.8,0.3c0.2,0.2,0.3,0.5,0.4,0.8l0.3,1.5c0.1,0.4,0.2,0.8,0.5,1
			c0.3,0.3,0.8,0.4,1.1,0.4l0.6,0.1l0.1,0l0.2-1l-0.4-0.1c-0.2-0.1-0.4-0.1-0.5-0.3c-0.1-0.1-0.2-0.3-0.2-0.5l-0.5-1.6
			c-0.1-0.3-0.2-0.7-0.5-1c-0.1-0.1-0.2-0.2-0.3-0.3c0.1-0.1,0.2-0.1,0.3-0.2c0.4-0.4,0.5-0.8,0.6-1.1l0.3-1.1
			c0-0.2,0.1-0.3,0.2-0.5c0.1-0.1,0.3-0.2,0.4-0.2l0.4-0.1l0.1,0l0-0.1l-0.2-0.9l-0.6,0.1c-0.2,0-0.7,0.1-1,0.5
			c-0.3,0.3-0.4,0.6-0.4,0.9l-0.3,1.1c-0.1,0.3-0.1,0.6-0.3,0.8c-0.3,0.2-0.7,0.3-0.9,0.3h-0.9v-3.5h-1.4v8.6h1.4V22.8z"/>
		<polygon class="st2" points="117,26.8 118.4,26.8 118.4,19.3 120.6,19.3 120.6,19.2 120.7,18.2 114.9,18.2 114.9,19.3 117,19.3 		
			"/>
		<path class="st2" d="M123.8,23.4h1.3c0.9,0,1.4-0.2,1.8-0.5c0.8-0.6,1.1-1.3,1-2.2c0-0.9-0.4-1.7-1.1-2.1c-0.5-0.3-1-0.4-2.1-0.4
			h-2.3v8.6h1.3V23.4z M126.5,20.8c0,0.5-0.1,0.8-0.3,1.1c-0.3,0.3-0.6,0.5-1.2,0.5h-1.2v-3.1h1c0.7,0,1,0.1,1.3,0.4
			C126.3,19.9,126.5,20.3,126.5,20.8z"/>
		<path class="st2" d="M133.3,18c-2.1,0-3.5,1.6-3.5,4.4c0,2.5,1.2,4.4,3.5,4.4c2.2,0,3.5-1.8,3.5-4.3C136.9,20.2,135.9,18,133.3,18
			z M135.4,22.6c0,2.3-0.7,3.2-2,3.2c-1.6,0-2.1-1.4-2.1-3.5c0-2.1,0.6-3.2,2-3.2C134.9,19.1,135.4,20.4,135.4,22.6z"/>
		<polygon class="st2" points="143.9,21.6 140.9,21.6 140.9,18.2 139.5,18.2 139.5,26.8 140.9,26.8 140.9,22.7 143.9,22.7 
			143.9,26.8 144,26.8 145.2,26.8 145.2,18.2 143.9,18.2 		"/>
		<polygon class="st2" points="152.7,21.6 149.6,21.6 149.6,18.2 148.3,18.2 148.3,26.8 149.6,26.8 149.6,22.7 152.7,22.7 
			152.7,26.8 152.8,26.8 154,26.8 154,18.2 152.7,18.2 		"/>
		<path class="st2" d="M158.8,18.2l-2.8,8.6h1.4l0.7-2.4h2.8l0.7,2.4h0.1h1.4l-2.8-8.6H158.8z M160.6,23.2h-2.1
			c0.2-0.6,0.9-2.9,1.1-3.6C159.7,20.4,160.4,22.6,160.6,23.2z"/>
		<path class="st2" d="M168.1,18.1c-0.7,0-1.6,0-2.3,0.7c-0.3,0.3-0.7,0.8-0.7,1.7c0,0.5,0.2,1.1,0.6,1.5c0.3,0.3,0.6,0.4,0.9,0.5
			c-0.2,0.1-0.3,0.2-0.5,0.3c-0.3,0.3-0.4,0.7-0.5,1l-0.3,1.1c0,0.2-0.1,0.4-0.2,0.5s-0.4,0.2-0.7,0.3l-0.2,0.1h-0.1l0.3,1l0.7-0.1
			c0.4-0.1,0.8-0.2,1.1-0.4c0.3-0.3,0.3-0.6,0.4-0.9l0.3-1.3c0.1-0.3,0.1-0.6,0.4-0.8c0.3-0.3,0.6-0.3,1-0.3h0.9v3.7h1.3v-8.6H168.1
			z M168.3,21.9c-0.3,0-0.9,0-1.3-0.3c-0.4-0.3-0.5-0.7-0.5-1c0-0.3,0-0.7,0.4-1c0.4-0.4,0.9-0.4,1.3-0.4h1v2.7H168.3z"/>
		<polygon class="st2" points="87.8,41.4 89.1,41.4 89.1,32.8 83.6,32.8 83.6,41.4 84.9,41.4 84.9,34 87.7,34 87.7,41.4 		"/>
		<path class="st2" d="M91.6,41.5c0.4,0,0.9-0.1,1.4-0.6c0.6-0.5,0.7-1.4,0.8-2.1c0.1-0.8,0.2-2.1,0.3-3.1l0.1-1.8H96v7.5h1.3v-8.6
			h-4.4l-0.1,2c0,0.7-0.1,2.4-0.2,3.2c-0.1,0.9-0.2,1.7-0.7,2.1c-0.2,0.2-0.5,0.3-0.7,0.4L91,40.5l-0.1,0l0.3,1L91.6,41.5z"/>
		<path class="st2" d="M103.5,32.7c-2.1,0-3.5,1.6-3.5,4.4c0,2.5,1.2,4.4,3.6,4.4c2.2,0,3.5-1.8,3.5-4.4
			C107.1,34.8,106.1,32.7,103.5,32.7z M103.6,40.5c-1.6,0-2.1-1.4-2.1-3.5c0-2.2,0.6-3.2,2-3.2c1.5,0,2,1.2,2,3.5
			C105.6,39.6,104.9,40.5,103.6,40.5z"/>
		<polygon class="st2" points="113.4,32.8 113.4,40.3 111.1,40.3 111.1,32.8 109.7,32.8 109.7,41.4 118,41.4 118,43.6 119.2,43.6 
			119.2,40.3 118.4,40.3 118.4,32.8 117,32.8 117,40.3 114.7,40.3 114.7,32.8 		"/>
		<path class="st2" d="M126.2,41.4h1.4l-2.8-8.6h-1.6l-2.8,8.6h1.4l0.7-2.4h2.8L126.2,41.4L126.2,41.4z M124,34.3
			c0.2,0.7,0.9,3,1,3.6h-2.1C123.1,37.3,123.8,35,124,34.3z"/>
		<path class="st2" d="M135.5,32.8h-4.4l0,1.3c-0.1,1-0.1,2.2-0.4,3.4c-0.3,1-0.6,1.9-1,2.7H129v3.3h1.3v-2.2h4.7v2.2h1.3v-3.3h-0.9
			V32.8z M134.1,34v6.3h-3.2c0.4-0.8,0.6-1.5,0.9-2.3c0.3-1.2,0.4-2.1,0.5-3.1l0.1-1H134.1z"/>
		<path class="st2" d="M143.9,40.2c-0.1-0.1-0.2-0.3-0.2-0.5l-0.5-1.6c-0.1-0.3-0.2-0.7-0.5-1c-0.1-0.1-0.2-0.2-0.3-0.2
			c0.1-0.1,0.2-0.1,0.3-0.3c0.4-0.3,0.5-0.8,0.6-1.1l0.3-1.1c0-0.2,0.1-0.3,0.2-0.5c0.1-0.1,0.3-0.2,0.4-0.2l0.4-0.1h0.1l0-0.1
			l-0.3-0.9l-0.6,0.1c-0.2,0-0.7,0.1-1,0.5c-0.3,0.3-0.3,0.6-0.4,0.9l-0.2,1.1c-0.1,0.3-0.1,0.6-0.3,0.8c-0.3,0.3-0.7,0.3-0.9,0.3
			H140v-3.5h-1.4v8.6h1.4v-4h0.9c0.2,0,0.5,0,0.7,0.3c0.2,0.2,0.3,0.5,0.4,0.8l0.3,1.5c0.1,0.4,0.2,0.8,0.5,1
			c0.3,0.3,0.8,0.4,1.1,0.4l0.6,0.1l0.1,0l0.2-1l-0.4-0.1C144.2,40.4,144,40.3,143.9,40.2z"/>
		<path class="st2" d="M149,32.8l-2.8,8.6h1.4l0.7-2.4h2.8l0.7,2.4h0.1h1.4l-2.7-8.6H149z M150.8,37.9h-2.1c0.2-0.6,0.9-2.9,1.1-3.6
			C149.9,35,150.6,37.3,150.8,37.9z"/>
		<path class="st2" d="M88,47.9c-0.5-0.3-1-0.4-2-0.4h-2.4v8.6h1.4v-3.3h1.3c0.9,0,1.4-0.2,1.8-0.5c0.8-0.6,1.1-1.2,1.1-2.2
			C89.1,49.1,88.7,48.4,88,47.9z M84.9,48.6h1c0.7,0,1,0.1,1.3,0.4c0.3,0.2,0.4,0.6,0.4,1.1c0,0.5-0.1,0.8-0.3,1
			c-0.3,0.3-0.6,0.5-1.1,0.5h-1.2V48.6z"/>
		<path class="st2" d="M94.5,47.4c-2.1,0-3.5,1.6-3.5,4.4c0,2.5,1.2,4.4,3.6,4.4c2.2,0,3.5-1.8,3.5-4.4C98,49.5,97,47.4,94.5,47.4z
			 M94.6,55.2c-1.6,0-2.1-1.4-2.1-3.5c0-2.1,0.6-3.1,2-3.1c1.5,0,2,1.2,2,3.5C96.5,54.3,95.8,55.1,94.6,55.2z"/>
		<path class="st2" d="M105.6,54.6c-0.4,0.3-0.9,0.5-1.5,0.5c-0.9,0-1.6-0.4-2-1.3c-0.2-0.5-0.3-1-0.3-1.9c0-1,0.1-1.7,0.4-2.2
			c0.4-0.7,1-1.1,1.8-1.1c0.5,0,1,0.1,1.4,0.5l0.1,0.1l0.7-0.9l-0.1-0.1c-0.6-0.5-1.3-0.7-2.1-0.7c-1.3,0-2.5,0.7-3.1,2
			c-0.4,0.7-0.6,1.5-0.6,2.5c0,1.2,0.3,2.2,0.9,3c0.7,0.8,1.6,1.3,2.7,1.3c0.9,0,1.7-0.3,2.3-0.7l0.1-0.1L105.6,54.6L105.6,54.6z"/>
		<path class="st2" d="M113.6,54.6c-0.4,0.3-0.9,0.5-1.5,0.5c-0.9,0-1.6-0.4-2-1.3c-0.2-0.5-0.3-1-0.3-1.9c0-1,0.1-1.7,0.4-2.2
			c0.4-0.7,1-1.1,1.8-1.1c0.5,0,1,0.1,1.4,0.5l0.1,0.1l0.7-0.9l-0.1-0.1c-0.5-0.5-1.3-0.7-2.1-0.7c-1.3,0-2.5,0.7-3.1,2
			c-0.3,0.7-0.5,1.5-0.5,2.5c0,1.2,0.3,2.2,0.9,3c0.7,0.8,1.6,1.3,2.7,1.3c0.9,0,1.7-0.3,2.3-0.7l0.1-0.1L113.6,54.6L113.6,54.6z"/>
		<path class="st2" d="M118.5,53.3c-0.1,0.2-0.2,0.4-0.3,0.7c0-0.3,0-0.6,0-0.8v-5.6h-1.3v8.6h1.4l3.2-6.1c0.1-0.1,0.1-0.3,0.2-0.5
			c0,0.4,0,0.8,0,1v5.5h0.1h1.2v-8.6h-1.5L118.5,53.3z"/>
		<path class="st2" d="M127.5,53.3c-0.1,0.2-0.2,0.4-0.3,0.7c0-0.3,0-0.6,0-0.8v-5.6h-1.3v8.6h1.4l3.2-6.1c0.1-0.1,0.1-0.3,0.2-0.5
			c0,0.4,0,0.8,0,1v5.5h0.1h1.2v-8.6h-1.4L127.5,53.3z"/>
	</g>
</g>
</svg>
